<svg xmlns="http://www.w3.org/2000/svg" id="svg2" viewBox="0 0 300 120"><defs><style>.cls-1{fill:#fff}</style></defs><title>deezer</title><path id="path22" d="M0,93.3H19.8v-6H0Z" class="cls-1"/><path id="path24" d="M0,85.5H19.8v-6H0Z" class="cls-1"/><path id="path26" d="M0,77.7H19.8v-6H0Z" class="cls-1"/><path id="path28" d="M0,69.9H19.8v-6H0Z" class="cls-1"/><path id="path30" d="M0,62.1H19.8v-6H0Z" class="cls-1"/><path id="path32" d="M22.2,93.3H42v-6H22.2Z" class="cls-1"/><path id="path34" d="M22.2,85.5H42v-6H22.2Z" class="cls-1"/><path id="path36" d="M22.2,77.7H42v-6H22.2Z" class="cls-1"/><path id="path38" d="M44.4,93.3H64.2v-6H44.4Z" class="cls-1"/><path id="path40" d="M44.4,85.5H64.2v-6H44.4Z" class="cls-1"/><path id="path42" d="M44.4,77.7H64.2v-6H44.4Z" class="cls-1"/><path id="path44" d="M44.4,69.9H64.2v-6H44.4Z" class="cls-1"/><path id="path46" d="M44.4,62.1H64.2v-6H44.4Z" class="cls-1"/><path id="path48" d="M44.4,54.3H64.2v-6H44.4Z" class="cls-1"/><path id="path50" d="M44.4,46.5H64.2v-6H44.4Z" class="cls-1"/><path id="path52" d="M66.6,93.3H86.4v-6H66.6Z" class="cls-1"/><path id="path54" d="M66.6,85.5H86.4v-6H66.6Z" class="cls-1"/><path id="path56" d="M66.6,77.7H86.4v-6H66.6Z" class="cls-1"/><path id="path58" d="M66.6,69.9H86.4v-6H66.6Z" class="cls-1"/><path id="path60" d="M66.6,62.1H86.4v-6H66.6Z" class="cls-1"/><path id="path62" d="M88.8,93.3h19.8v-6H88.8Z" class="cls-1"/><path id="path64" d="M88.8,85.5h19.8v-6H88.8Z" class="cls-1"/><path id="path66" d="M88.8,77.7h19.8v-6H88.8Z" class="cls-1"/><path id="path68" d="M88.8,69.9h19.8v-6H88.8Z" class="cls-1"/><path id="path70" d="M88.8,62.1h19.8v-6H88.8Z" class="cls-1"/><path id="path72" d="M88.8,54.3h19.8v-6H88.8Z" class="cls-1"/><path id="path74" d="M88.8,46.5h19.8v-6H88.8Z" class="cls-1"/><path id="path76" d="M88.8,38.7h19.8v-6H88.8Z" class="cls-1"/><path id="path78" d="M125.4,85.55h4.65c6.83,0,7.94-3.6,7.94-15V47.64c0-9.87-.84-13.19-8.68-13.19H125.4Zm-9-58.85h14.85c14.94,0,16.35,5.23,16.35,24.6V71.1c0,17.07-3.43,22.2-18,22.2H116.4V26.7" class="cls-1"/><path id="path80" d="M151.2,26.7h25.2v7.92H160.2V55.5h15v7.8h-15V85.39h16.2V93.3H151.2V26.7" class="cls-1"/><path id="path82" d="M180,26.7h25.2v7.92H189V55.5h15v7.8H189V85.39h16.2V93.3H180V26.7" class="cls-1"/><path id="path84" d="M241.8,26.7H267v7.92H250.8V55.5h15v7.8h-15V85.39H267V93.3H241.8V26.7" class="cls-1"/><path id="path86" d="M208.8,85.5l20.73-51H208.8V26.7h29.4v7.8l-20.38,51H238.2v7.8H208.8V85.5" class="cls-1"/><path id="path88" d="M279.6,56.1h2.79c7.29,0,8.4-.9,8.4-10.86s-.89-10.75-6.6-10.75H279.6V56.1Zm-9-29.4H285c13.47,0,14.41,3.43,14.41,18,0,8.94-.85,13.31-8.41,15.62h0c6.27.64,8.42,3.92,8.42,10.19V85a43.35,43.35,0,0,0,.58,8.3h-9c-.93-1.67-.59-3.3-.59-6v-15c0-6.27-1.2-7.79-7.29-7.79H279.6V93.3h-9V26.7" class="cls-1"/></svg>